# xmcd
#
# Track frame offsets:
# 150
# 19408
# 37066
# 66326
# 68815
# 87684
# 102163
# 126393
# 156051
# 158235
# 177852
#
# Disc length: 2597 seconds
#
#
# Revision: 0
# Processed by: cddbd v1.5.1PL0 Copyright (c) Steve Scherf et al.
# Submitted via: FreeRIP 2.942 
#
DISCID=9b0a230b
DTITLE=mojoe boes - ...and the rain makes the sun shine brighter
DYEAR=2005
DGENRE=organic blues
TTITLE0=01-alligator snowshoes
TTITLE1=02-get right
TTITLE2=03-emmajean was pretty
TTITLE3=04-bumps
TTITLE4=05-fatback kitty kat
TTITLE5=06-and also with you
TTITLE6=07-and the rain makes the sun shine brighter
TTITLE7=08-noble jones
TTITLE8=09-spmub
TTITLE9=10-impact
TTITLE10=11-walk with me (lullaby)
EXTD=YEAR: 2005\n
EXTT0=
EXTT1=
EXTT2=
EXTT3=
EXTT4=
EXTT5=
EXTT6=
EXTT7=
EXTT8=
EXTT9=
EXTT10=
PLAYORDER=
